<svg xmlns="http://www.w3.org/2000/svg" viewBox="0 0 680 560" role="img" aria-labelledby="kdt kdd">
  <title id="kdt">KEYOB AI Diagnostic Map</title>
  <desc id="kdd">An abstract business workflow showing AI analyzing process nodes, identifying inefficiencies, and routing improvements toward measurable outcomes.</desc>

  <style>
    @keyframes flowDot {
      0%   { offset-distance: 0%;   opacity: 0; }
      5%   { opacity: 1; }
      80%  { opacity: 1; }
      100% { offset-distance: 100%; opacity: 0; }
    }
    @keyframes aiPulse {
      0%, 100% { opacity: 0.18; }
      50%      { opacity: 0.38; }
    }
    @keyframes nodePing {
      0%   { r: 7;  opacity: 0.6; }
      60%  { r: 14; opacity: 0;   }
      100% { r: 14; opacity: 0;   }
    }
    @keyframes outcomeGrow {
      0%, 100% { opacity: 0.25; }
      50%      { opacity: 0.55; }
    }
    .flow-dot      { offset-rotate: 0deg; animation: flowDot 4.5s ease-in-out infinite; }
    .ai-glow       { animation: aiPulse 3s ease-in-out infinite; }
    .ping          { animation: nodePing 2.8s ease-out infinite; }
    .outcome-glow  { animation: outcomeGrow 3.2s ease-in-out infinite; }
    @media (prefers-reduced-motion: reduce) {
      .flow-dot, .ai-glow, .ping, .outcome-glow { animation: none; }
    }
  </style>

  <g opacity="0.06" fill="#0A1F4B">
    <circle cx="40" cy="40" r="1.5"/><circle cx="120" cy="40" r="1.5"/><circle cx="200" cy="40" r="1.5"/>
    <circle cx="280" cy="40" r="1.5"/><circle cx="360" cy="40" r="1.5"/><circle cx="440" cy="40" r="1.5"/>
    <circle cx="520" cy="40" r="1.5"/><circle cx="600" cy="40" r="1.5"/>
    <circle cx="40" cy="520" r="1.5"/><circle cx="120" cy="520" r="1.5"/><circle cx="200" cy="520" r="1.5"/>
    <circle cx="280" cy="520" r="1.5"/><circle cx="360" cy="520" r="1.5"/><circle cx="440" cy="520" r="1.5"/>
    <circle cx="520" cy="520" r="1.5"/><circle cx="600" cy="520" r="1.5"/>
  </g>

  <g stroke="#0D2B6B" stroke-width="0.3" opacity="0.07" fill="none">
    <line x1="20" y1="112" x2="660" y2="112"/>
    <line x1="20" y1="200" x2="660" y2="200"/>
    <line x1="20" y1="288" x2="660" y2="288"/>
    <line x1="20" y1="380" x2="660" y2="380"/>
    <line x1="20" y1="460" x2="660" y2="460"/>
  </g>
  <g stroke="#0D2B6B" stroke-width="0.3" opacity="0.07" fill="none">
    <line x1="130" y1="60" x2="130" y2="500"/>
    <line x1="260" y1="60" x2="260" y2="500"/>
    <line x1="440" y1="60" x2="440" y2="500"/>
    <line x1="550" y1="60" x2="550" y2="500"/>
  </g>

  <text font-family="sans-serif" font-size="22" font-weight="600" letter-spacing="4"
        fill="#0D2B6B" opacity="0.38" x="340" y="24" text-anchor="middle" dominant-baseline="central">
    BUSINESS DIAGNOSTIC SCAN
  </text>

  <circle cx="166" cy="140" r="7" fill="none" stroke="#0D2B6B" stroke-width="0.6" opacity="0.5" class="ping" style="animation-delay:0s"/>
  <circle cx="166" cy="200" r="7" fill="none" stroke="#0D2B6B" stroke-width="0.6" opacity="0.5" class="ping" style="animation-delay:1s"/>
  <circle cx="166" cy="260" r="7" fill="none" stroke="#0D2B6B" stroke-width="0.6" opacity="0.5" class="ping" style="animation-delay:2s"/>

  <rect x="124" y="118" width="84" height="44" rx="6" fill="none" stroke="#0D2B6B" stroke-width="0.9" opacity="0.4"/>
  <rect x="124" y="178" width="84" height="44" rx="6" fill="none" stroke="#0D2B6B" stroke-width="0.9" opacity="0.4"/>
  <rect x="124" y="238" width="84" height="44" rx="6" fill="none" stroke="#0D2B6B" stroke-width="0.9" opacity="0.4"/>

  <text font-family="sans-serif" font-size="10" fill="#0D2B6B" opacity="0.95" x="166" y="134" text-anchor="middle" dominant-baseline="central" font-weight="700" letter-spacing="0.4">OPERATIONS</text>
  <text font-family="sans-serif" font-size="10" fill="#0D2B6B" opacity="0.95" x="166" y="147" text-anchor="middle" dominant-baseline="central" font-weight="700" letter-spacing="0.4">INTAKE</text>
  <text font-family="sans-serif" font-size="10" fill="#0D2B6B" opacity="0.95" x="166" y="194" text-anchor="middle" dominant-baseline="central" font-weight="700" letter-spacing="0.4">FINANCE</text>
  <text font-family="sans-serif" font-size="10" fill="#0D2B6B" opacity="0.95" x="166" y="207" text-anchor="middle" dominant-baseline="central" font-weight="700" letter-spacing="0.4">FLOW</text>
  <text font-family="sans-serif" font-size="10" fill="#0D2B6B" opacity="0.95" x="166" y="254" text-anchor="middle" dominant-baseline="central" font-weight="700" letter-spacing="0.4">PEOPLE</text>
  <text font-family="sans-serif" font-size="10" fill="#0D2B6B" opacity="0.95" x="166" y="267" text-anchor="middle" dominant-baseline="central" font-weight="700" letter-spacing="0.4">PROCESS</text>

  <line x1="20" y1="140" x2="124" y2="140" stroke="#0D2B6B" stroke-width="0.6" opacity="0.18"/>
  <line x1="20" y1="200" x2="124" y2="200" stroke="#0D2B6B" stroke-width="0.6" opacity="0.18"/>
  <line x1="20" y1="260" x2="124" y2="260" stroke="#0D2B6B" stroke-width="0.6" opacity="0.18"/>

  <path d="M 118 137 L 124 140 L 118 143" fill="none" stroke="#0D2B6B" stroke-width="0.7" opacity="0.3" stroke-linecap="round"/>
  <path d="M 118 197 L 124 200 L 118 203" fill="none" stroke="#0D2B6B" stroke-width="0.7" opacity="0.3" stroke-linecap="round"/>
  <path d="M 118 257 L 124 260 L 118 263" fill="none" stroke="#0D2B6B" stroke-width="0.7" opacity="0.3" stroke-linecap="round"/>

  <path d="M 208 140 C 230 140, 244 145, 255 148" fill="none" stroke="#0D2B6B" stroke-width="0.6" opacity="0.2"/>
  <path d="M 208 200 L 255 200" fill="none" stroke="#0D2B6B" stroke-width="0.6" opacity="0.2"/>
  <path d="M 208 260 C 230 260, 244 255, 255 252" fill="none" stroke="#0D2B6B" stroke-width="0.6" opacity="0.2"/>

  <rect x="253" y="128" width="90" height="40" rx="6" fill="#FFF0EE" stroke="#C0442A" stroke-width="0.9" opacity="0.85"/>
  <text font-family="sans-serif" font-size="10" fill="#7A2210" x="298" y="146" text-anchor="middle" dominant-baseline="central" font-weight="700" letter-spacing="0.4">TIME LOSS</text>
  <text font-family="sans-serif" font-size="8.5" fill="#7A2210" opacity="0.85" x="298" y="159" text-anchor="middle" dominant-baseline="central">detected</text>

  <rect x="253" y="180" width="90" height="40" rx="6" fill="#FFF8ED" stroke="#B8680C" stroke-width="0.9" opacity="0.85"/>
  <text font-family="sans-serif" font-size="10" fill="#6B3A06" x="298" y="198" text-anchor="middle" dominant-baseline="central" font-weight="700" letter-spacing="0.4">COST LEAK</text>
  <text font-family="sans-serif" font-size="8.5" fill="#6B3A06" opacity="0.85" x="298" y="211" text-anchor="middle" dominant-baseline="central">flagged</text>

  <rect x="253" y="232" width="90" height="40" rx="6" fill="#EDF4FF" stroke="#185FA5" stroke-width="0.9" opacity="0.85"/>
  <text font-family="sans-serif" font-size="10" fill="#0C2D5A" x="298" y="250" text-anchor="middle" dominant-baseline="central" font-weight="700" letter-spacing="0.4">MANUAL WORK</text>
  <text font-family="sans-serif" font-size="8.5" fill="#0C2D5A" opacity="0.85" x="298" y="263" text-anchor="middle" dominant-baseline="central">mapped</text>

  <path d="M 249 124 L 243 124 L 243 276 L 249 276" fill="none" stroke="#185FA5" stroke-width="0.9" opacity="0.45" stroke-linecap="round"/>
  <text font-family="sans-serif" font-size="9" fill="#185FA5" opacity="0.6" x="237" y="200" text-anchor="middle" dominant-baseline="central" transform="rotate(-90, 237, 200)" letter-spacing="1.4" font-weight="600">DIAGNOSTICS</text>

  <ellipse cx="440" cy="200" rx="52" ry="52" fill="#00C5E8" opacity="0.06" class="ai-glow"/>
  <ellipse cx="440" cy="200" rx="38" ry="38" fill="#00C5E8" opacity="0.08" class="ai-glow" style="animation-delay:1.5s"/>

  <path d="M 343 148 C 360 148, 372 175, 390 190" fill="none" stroke="#185FA5" stroke-width="0.8" opacity="0.3" stroke-dasharray="4 3"/>
  <path d="M 343 200 L 390 200" fill="none" stroke="#185FA5" stroke-width="0.8" opacity="0.3" stroke-dasharray="4 3"/>
  <path d="M 343 252 C 360 252, 372 225, 390 210" fill="none" stroke="#185FA5" stroke-width="0.8" opacity="0.3" stroke-dasharray="4 3"/>

  <polygon points="440,162 472,178 440,194 408,178" fill="#E8F8FC" stroke="#00C5E8" stroke-width="1" opacity="0.85"/>
  <polygon points="408,178 440,194 440,230 408,214" fill="#CBF0F8" stroke="#00C5E8" stroke-width="1" opacity="0.7"/>
  <polygon points="440,194 472,178 472,214 440,230" fill="#B0E8F5" stroke="#00C5E8" stroke-width="1" opacity="0.7"/>

  <line x1="430" y1="175" x2="450" y2="185" stroke="#00C5E8" stroke-width="0.5" opacity="0.55"/>
  <line x1="435" y1="182" x2="445" y2="177" stroke="#00C5E8" stroke-width="0.5" opacity="0.45"/>
  <circle cx="440" cy="180" r="2.5" fill="#00C5E8" opacity="0.7"/>
  <circle cx="430" cy="174" r="1.5" fill="#00C5E8" opacity="0.5"/>
  <circle cx="450" cy="186" r="1.5" fill="#00C5E8" opacity="0.5"/>

  <text font-family="sans-serif" font-size="10" fill="#0A8DA8" opacity="1" x="440" y="124" text-anchor="middle" dominant-baseline="central" font-weight="700" letter-spacing="1.8">AI ENGINE</text>
  <text font-family="sans-serif" font-size="8.5" fill="#0D2B6B" opacity="0.7" x="440" y="137" text-anchor="middle" dominant-baseline="central" font-weight="600" letter-spacing="1">KEYOB INTELLIGENCE</text>

  <path d="M 472 187 C 498 180, 518 155, 545 152" fill="none" stroke="#00C5E8" stroke-width="0.9" opacity="0.3" stroke-dasharray="4 3"/>
  <path d="M 472 196 C 498 196, 520 200, 545 200" fill="none" stroke="#00C5E8" stroke-width="0.9" opacity="0.3" stroke-dasharray="4 3"/>
  <path d="M 472 213 C 498 220, 518 245, 545 248" fill="none" stroke="#00C5E8" stroke-width="0.9" opacity="0.3" stroke-dasharray="4 3"/>

  <circle cx="586" cy="152" r="22" fill="#00C5E8" opacity="0.07" class="outcome-glow" style="animation-delay:0.5s"/>
  <circle cx="586" cy="200" r="22" fill="#00C5E8" opacity="0.07" class="outcome-glow" style="animation-delay:1.4s"/>
  <circle cx="586" cy="248" r="22" fill="#00C5E8" opacity="0.07" class="outcome-glow" style="animation-delay:2.3s"/>

  <rect x="545" y="132" width="90" height="40" rx="7" fill="#FFFFFF" stroke="#00C5E8" stroke-width="1.2" opacity="1"/>
  <text font-family="sans-serif" font-size="10.5" fill="#0A1F4B" opacity="1" x="590" y="148" text-anchor="middle" dominant-baseline="central" font-weight="800" letter-spacing="0.5">TIME SAVED</text>
  <text font-family="sans-serif" font-size="9.5" fill="#066D85" opacity="1" x="590" y="161" text-anchor="middle" dominant-baseline="central" font-weight="700">↑ capacity</text>

  <rect x="545" y="180" width="90" height="40" rx="7" fill="#FFFFFF" stroke="#00C5E8" stroke-width="1.2" opacity="1"/>
  <text font-family="sans-serif" font-size="10.5" fill="#0A1F4B" opacity="1" x="590" y="196" text-anchor="middle" dominant-baseline="central" font-weight="800" letter-spacing="0.5">LOWER COST</text>
  <text font-family="sans-serif" font-size="9.5" fill="#066D85" opacity="1" x="590" y="209" text-anchor="middle" dominant-baseline="central" font-weight="700">↓ leakage</text>

  <rect x="545" y="228" width="90" height="40" rx="7" fill="#FFFFFF" stroke="#00C5E8" stroke-width="1.2" opacity="1"/>
  <text font-family="sans-serif" font-size="10.5" fill="#0A1F4B" opacity="1" x="590" y="244" text-anchor="middle" dominant-baseline="central" font-weight="800" letter-spacing="0.5">PERFORMANCE</text>
  <text font-family="sans-serif" font-size="9.5" fill="#066D85" opacity="1" x="590" y="257" text-anchor="middle" dominant-baseline="central" font-weight="700">↑ output</text>

  <path d="M 639 127 L 645 127 L 645 273 L 639 273" fill="none" stroke="#00C5E8" stroke-width="0.9" opacity="0.55" stroke-linecap="round"/>
  <text font-family="sans-serif" font-size="9" fill="#0A8DA8" opacity="0.75" x="653" y="200" text-anchor="middle" dominant-baseline="central" transform="rotate(90, 653, 200)" letter-spacing="1.4" font-weight="600">OUTCOMES</text>

  <circle r="3" fill="#185FA5" opacity="0.75" class="flow-dot" style="offset-path: path('M 20 140 L 124 140'); animation-delay:0s; animation-duration:3.2s"/>
  <circle r="3" fill="#185FA5" opacity="0.75" class="flow-dot" style="offset-path: path('M 20 200 L 124 200'); animation-delay:1s; animation-duration:3.2s"/>
  <circle r="3" fill="#185FA5" opacity="0.75" class="flow-dot" style="offset-path: path('M 20 260 L 124 260'); animation-delay:2s; animation-duration:3.2s"/>

  <circle r="2.5" fill="#185FA5" opacity="0.65" class="flow-dot" style="offset-path: path('M 208 140 C 230 140, 244 145, 255 148'); animation-delay:0.8s; animation-duration:3.6s"/>
  <circle r="2.5" fill="#185FA5" opacity="0.65" class="flow-dot" style="offset-path: path('M 208 200 L 255 200'); animation-delay:1.6s; animation-duration:3.6s"/>
  <circle r="2.5" fill="#185FA5" opacity="0.65" class="flow-dot" style="offset-path: path('M 208 260 C 230 260, 244 255, 255 252'); animation-delay:2.4s; animation-duration:3.6s"/>

  <circle r="3.5" fill="#00C5E8" opacity="0.9" class="flow-dot" style="offset-path: path('M 343 148 C 360 148, 372 175, 390 190'); animation-delay:1.2s; animation-duration:5s"/>
  <circle r="3.5" fill="#00C5E8" opacity="0.9" class="flow-dot" style="offset-path: path('M 343 200 L 390 200'); animation-delay:2.2s; animation-duration:5s"/>
  <circle r="3.5" fill="#00C5E8" opacity="0.9" class="flow-dot" style="offset-path: path('M 343 252 C 360 252, 372 225, 390 210'); animation-delay:3.2s; animation-duration:5s"/>

  <circle r="3" fill="#00C5E8" opacity="0.85" class="flow-dot" style="offset-path: path('M 472 187 C 498 180, 518 155, 545 152'); animation-delay:2s; animation-duration:4.2s"/>
  <circle r="3" fill="#00C5E8" opacity="0.85" class="flow-dot" style="offset-path: path('M 472 196 C 498 196, 520 200, 545 200'); animation-delay:3s; animation-duration:4.2s"/>
  <circle r="3" fill="#00C5E8" opacity="0.85" class="flow-dot" style="offset-path: path('M 472 213 C 498 220, 518 245, 545 248'); animation-delay:4s; animation-duration:4.2s"/>

  <line x1="60" y1="340" x2="620" y2="340" stroke="#0D2B6B" stroke-width="0.4" opacity="0.1"/>

  <g>
    <rect x="118" y="354" width="84" height="36" rx="5" fill="#FFFFFF" stroke="#0D2B6B" stroke-width="0.9" opacity="0.9"/>
    <text font-family="sans-serif" font-size="10" fill="#0D2B6B" x="160" y="369" text-anchor="middle" dominant-baseline="central" font-weight="700" letter-spacing="0.4">REPORTING</text>
    <text font-family="sans-serif" font-size="9" fill="#0A8DA8" x="160" y="382" text-anchor="middle" dominant-baseline="central" font-weight="500">auto ↗</text>

    <rect x="208" y="354" width="84" height="36" rx="5" fill="#FFFFFF" stroke="#0D2B6B" stroke-width="0.9" opacity="0.9"/>
    <text font-family="sans-serif" font-size="10" fill="#0D2B6B" x="250" y="369" text-anchor="middle" dominant-baseline="central" font-weight="700" letter-spacing="0.4">SCHEDULING</text>
    <text font-family="sans-serif" font-size="9" fill="#0A8DA8" x="250" y="382" text-anchor="middle" dominant-baseline="central" font-weight="500">auto ↗</text>

    <rect x="298" y="354" width="84" height="36" rx="5" fill="#FFFFFF" stroke="#0D2B6B" stroke-width="0.9" opacity="0.9"/>
    <text font-family="sans-serif" font-size="10" fill="#0D2B6B" x="340" y="369" text-anchor="middle" dominant-baseline="central" font-weight="700" letter-spacing="0.4">DATA ENTRY</text>
    <text font-family="sans-serif" font-size="9" fill="#0A8DA8" x="340" y="382" text-anchor="middle" dominant-baseline="central" font-weight="500">auto ↗</text>

    <rect x="388" y="354" width="84" height="36" rx="5" fill="#FFFFFF" stroke="#0D2B6B" stroke-width="0.9" opacity="0.9"/>
    <text font-family="sans-serif" font-size="10" fill="#0D2B6B" x="430" y="369" text-anchor="middle" dominant-baseline="central" font-weight="700" letter-spacing="0.4">APPROVALS</text>
    <text font-family="sans-serif" font-size="9" fill="#0A8DA8" x="430" y="382" text-anchor="middle" dominant-baseline="central" font-weight="500">auto ↗</text>

    <rect x="478" y="354" width="84" height="36" rx="5" fill="#FFFFFF" stroke="#0D2B6B" stroke-width="0.9" opacity="0.9"/>
    <text font-family="sans-serif" font-size="10" fill="#0D2B6B" x="520" y="369" text-anchor="middle" dominant-baseline="central" font-weight="700" letter-spacing="0.4">COMMS</text>
    <text font-family="sans-serif" font-size="9" fill="#0A8DA8" x="520" y="382" text-anchor="middle" dominant-baseline="central" font-weight="500">auto ↗</text>
  </g>

  <g opacity="0.12" stroke="#00C5E8" stroke-width="0.5" fill="none">
    <line x1="440" y1="230" x2="160" y2="360"/>
    <line x1="440" y1="230" x2="250" y2="360"/>
    <line x1="440" y1="230" x2="340" y2="360"/>
    <line x1="440" y1="230" x2="430" y2="360"/>
    <line x1="440" y1="230" x2="520" y2="360"/>
  </g>

  <text font-family="sans-serif" font-size="10" fill="#0D2B6B" opacity="0.6" x="340" y="412" text-anchor="middle" dominant-baseline="central" letter-spacing="2.4" font-weight="700">AUTOMATION OPPORTUNITY MAP</text>

  <g fill="none" stroke="#0D2B6B" stroke-width="0.5" opacity="0.12">
    <path d="M 20 80 L 20 60 L 40 60"/>
    <path d="M 660 80 L 660 60 L 640 60"/>
    <path d="M 20 500 L 20 520 L 40 520"/>
    <path d="M 660 500 L 660 520 L 640 520"/>
  </g>
</svg>
